
<svg xmlns="http://www.w3.org/2000/svg" xmlns:xlink="http://www.w3.org/1999/xlink" viewBox="0 0 35 35" width="35" height="35" fill="none">
  <g opacity="100%">
    <rect filter="url(#filter_dshadow_0_0_0_00000014)" x="0" y="0" width="35" height="35" fill="#c0dec2" rx="17.5"></rect>
    <svg xmlns="http://www.w3.org/2000/svg" viewBox="0 0 512 512" width="14" height="14" fill="#000" x="10.5" y="10.5">
      <path d="M510.3 445.9L437.3 153.8C433.5 138.5 420.8 128 406.4 128H346.1c3.625-9.1 5.875-20.75 5.875-32c0-53-42.1-96-96-96S159.1 43 159.1 96c0 11.25 2.25 22 5.875 32H105.6c-14.38 0-27.13 10.5-30.88 25.75l-73.01 292.1C-6.641 479.1 16.36 512 47.99 512h416C495.6 512 518.6 479.1 510.3 445.9zM256 128C238.4 128 223.1 113.6 223.1 96S238.4 64 256 64c17.63 0 32 14.38 32 32S273.6 128 256 128z"></path>
    </svg>
  </g>
  <defs>
    <filter id="filter_dshadow_0_0_0_00000014" color-interpolation-filters="sRGB" filterUnits="userSpaceOnUse">
      <feFlood flood-opacity="0" result="bg-fix"></feFlood>
      <feColorMatrix in="SourceAlpha" type="matrix" values="0 0 0 0 0 0 0 0 0 0 0 0 0 0 0 0 0 0 127 0" result="alpha"></feColorMatrix>
      <feOffset dx="0" dy="0"></feOffset>
      <feGaussianBlur stdDeviation="0"></feGaussianBlur>
      <feComposite in2="alpha" operator="out"></feComposite>
      <feColorMatrix type="matrix" values="0 0 0 0 0 0 0 0 0 0 0 0 0 0 0 0 0 0 0.08 0"></feColorMatrix>
      <feBlend mode="normal" in2="bg-fix" result="bg-fix-filter_dshadow_0_0_0_00000014"></feBlend>
      <feBlend in="SourceGraphic" in2="bg-fix-filter_dshadow_0_0_0_00000014" result="shape"></feBlend>
    </filter>
  </defs>
</svg>